<svg width="1179" height="2612" viewBox="0 0 1179 2612" fill="none" xmlns="http://www.w3.org/2000/svg">
<path d="M873.396 997.784L826.38 875.02L1069.3 783.6C949.144 506.728 734.96 284.708 465.924 148.884L361.444 381.352L241.292 326.5L345.772 91.42C199.5 33.956 40.1681 0 -127 0C-265.436 0 -398.648 28.732 -524.024 65.3L-435.216 305.604L-557.98 352.62L-649.4 109.704C-926.272 229.856 -1148.29 444.04 -1284.12 713.076L-1051.65 817.556L-1106.5 937.708L-1341.58 833.228C-1399.04 979.5 -1433 1138.83 -1433 1306C-1433 1444.44 -1404.27 1577.65 -1367.7 1703.02L-1127.4 1614.22L-1080.38 1736.98L-1323.3 1828.4C-1203.14 2105.27 -988.96 2327.29 -719.924 2463.12L-615.444 2230.65L-495.292 2285.5L-599.772 2520.58C-453.5 2578.04 -294.168 2612 -127 2612C11.4361 2612 144.648 2583.27 270.024 2546.7L181.216 2306.4L303.98 2259.38L395.4 2502.3C672.272 2382.14 894.292 2167.96 1030.12 1898.92L797.648 1794.44L852.5 1674.29L1087.58 1778.77C1145.04 1632.5 1179 1473.17 1179 1306C1179 1167.56 1150.27 1034.35 1113.7 908.976L873.396 997.784ZM173.38 2029.52C-226.256 2194.08 -685.968 2006.02 -850.524 1606.38C-1015.08 1206.74 -827.016 747.032 -427.38 582.476C-27.744 417.92 431.968 605.984 596.524 1005.62C636.192 1100.61 656.71 1202.49 656.901 1305.43C657.091 1408.37 636.951 1510.33 597.635 1605.47C558.319 1700.6 500.603 1787.03 427.797 1859.81C354.992 1932.58 268.533 1990.25 173.38 2029.52Z" fill="#0F0800"/>
</svg>
