<svg width="32" height="32" viewBox="0 0 32 32" fill="none" xmlns="http://www.w3.org/2000/svg">
<path d="M1 14.3333C1 8.04833 1 4.905 2.95333 2.95333C4.905 1 8.04833 1 14.3333 1H17.6667C23.9517 1 27.095 1 29.0467 2.95333C31 4.905 31 8.04833 31 14.3333V17.6667C31 23.9517 31 27.095 29.0467 29.0467C27.095 31 23.9517 31 17.6667 31H14.3333C8.04833 31 4.905 31 2.95333 29.0467C1 27.095 1 23.9517 1 17.6667V14.3333Z" stroke="#E5E3E2" stroke-width="2"/>
<path d="M23.5 11C24.8807 11 26 9.88071 26 8.5C26 7.11929 24.8807 6 23.5 6C22.1193 6 21 7.11929 21 8.5C21 9.88071 22.1193 11 23.5 11Z" fill="#E5E3E2"/>
<path d="M16 21C18.7614 21 21 18.7614 21 16C21 13.2386 18.7614 11 16 11C13.2386 11 11 13.2386 11 16C11 18.7614 13.2386 21 16 21Z" stroke="#E5E3E2" stroke-width="2"/>
</svg>
