<svg width="684" height="382" viewBox="0 0 684 382" fill="none" xmlns="http://www.w3.org/2000/svg">
<path d="M669.843 0L649.553 16.0551L684 59.6477V17.9173L669.843 0ZM626.604 15.664L606.314 31.7177L651.031 88.3083L627.826 88.9036L628.467 88.3974L583.37 31.328L563.079 47.3817L607.796 103.972L584.589 104.568L585.231 104.061L540.132 46.992L519.84 63.0457L564.557 119.635L541.352 120.23L541.992 119.725L496.896 62.6546L486.751 70.6814L476.604 78.7083L521.321 135.299L498.114 135.894L498.754 135.388L453.657 78.3186L433.366 94.3723L478.084 150.961L454.877 151.557L455.518 151.052L410.419 93.9811L390.129 110.035L434.844 166.625L411.64 167.221L412.28 166.715L367.183 109.645L346.893 125.699L391.609 182.288L368.402 182.883L369.044 182.379L323.946 125.308L303.653 141.361L348.372 197.952L325.166 198.547L325.805 198.041L280.71 140.972L260.419 157.025L305.136 213.616L281.929 214.211L282.568 213.705L237.472 156.636L217.18 172.689L261.897 229.279L238.692 229.874L239.332 229.369L194.233 172.298L173.941 188.352L219.041 245.423L237.89 230.509L239.733 302.627L265.593 301.964L263.732 229.231L262.919 229.254L281.128 214.845L282.972 286.963L308.832 286.302L306.971 213.568L306.155 213.59L324.364 199.181L326.211 271.301L352.067 270.638L350.209 197.904L349.393 197.923L367.601 183.519L369.446 255.637L395.306 254.975L393.445 182.242L392.627 182.261L410.84 167.855L412.683 239.974L438.545 239.311L436.684 166.578L435.866 166.597L454.075 152.192L455.919 224.31L481.779 223.649L479.919 150.915L479.105 150.934L497.314 136.525L499.158 208.648L525.017 207.985L523.157 135.251L522.34 135.27L540.55 120.861L542.396 192.984L568.253 192.322L566.395 119.587L565.579 119.608L583.788 105.199L585.632 177.32L611.492 176.658L609.631 103.925L608.815 103.943L627.027 89.5349L628.87 161.657L654.73 160.994L652.869 88.2608L652.053 88.2809L670.261 73.8723L672.106 145.993L684 145.687V72.9089L671.064 73.2396L671.704 72.7349L626.604 15.664ZM219.041 245.423L193.999 246.066L194.638 245.559L149.542 188.49L129.253 204.544L173.972 261.131L150.76 261.73L108.374 248.501L63.2786 191.43L86.0144 220.208L130.733 276.794L107.526 277.392L108.164 276.887L63.0688 219.817L42.7787 235.87L87.4974 292.458L64.2859 293.056L64.9268 292.55L19.8303 235.481L0 251.169V252.115L44.6367 308.604L63.4884 293.687L65.3321 365.808L91.189 365.147L89.3281 292.413L88.5148 292.432L106.724 278.023L108.571 350.146L134.425 349.483L132.567 276.749L131.752 276.769L149.961 262.361L151.806 334.482L177.663 333.82L175.802 261.087L174.988 261.105L193.2 246.697L195.043 318.819L220.902 318.156L219.041 245.423ZM44.6367 308.604L19.5975 309.245L20.2369 308.739L0 283.133V324.751L18.7956 309.879L20.6393 382L46.4962 381.334L44.6367 308.604Z" fill="#FFAA17"/>
</svg>
