<svg width="32" height="27" viewBox="0 0 32 27" fill="none" xmlns="http://www.w3.org/2000/svg">
<path d="M22.1832 3.19296C20.9709 3.19275 19.8069 3.66837 18.9416 4.51752C18.0764 5.36667 17.5789 6.5215 17.5564 7.73362L17.5117 10.2465C17.5093 10.3815 17.4783 10.5145 17.4209 10.6368C17.3634 10.759 17.2807 10.8677 17.1783 10.9557C17.0758 11.0437 16.9559 11.109 16.8263 11.1474C16.6968 11.1857 16.5606 11.1962 16.4268 11.1782L13.9347 10.8384C10.6592 10.3916 7.51937 8.88394 4.50556 6.37429C3.55307 11.6552 5.41497 15.3136 9.90298 18.136L12.6902 19.8878C12.8224 19.9709 12.9323 20.0852 13.0102 20.2205C13.0881 20.3559 13.1317 20.5083 13.1372 20.6643C13.1427 20.8204 13.11 20.9755 13.0418 21.116C12.9736 21.2565 12.8721 21.3782 12.7461 21.4705L10.2061 23.3276C11.717 23.4233 13.1513 23.3563 14.3415 23.1202C21.8689 21.6172 26.8738 15.9534 26.8738 6.61042C26.8738 5.84779 25.2576 3.19296 22.1832 3.19296ZM14.3655 7.67618C14.3933 6.13824 14.8742 4.6427 15.748 3.37679C16.6218 2.11088 17.8496 1.13087 19.2777 0.559451C20.7058 -0.0119649 22.2708 -0.149389 23.7766 0.164385C25.2825 0.478159 26.6623 1.22919 27.7433 2.32344C28.8777 2.31546 29.8429 2.60264 32 1.29277C31.4671 3.90932 31.2023 5.04687 30.0647 6.60882C30.0647 18.7997 22.5709 24.73 14.9653 26.2473C9.753 27.2875 2.16982 25.5788 0 23.3084C1.10565 23.2239 5.60483 22.7404 8.20541 20.8355C6.00369 19.3836 -2.75216 14.2303 3.00264 0.378579C5.70374 3.53279 8.44314 5.67867 11.2192 6.81942C13.0652 7.57726 13.5199 7.56131 14.3671 7.67778L14.3655 7.67618Z" fill="#E5E3E2"/>
</svg>
