<svg width="32" height="32" viewBox="0 0 32 32" fill="none" xmlns="http://www.w3.org/2000/svg">
<path d="M24.8889 0C26.7133 -1.42712e-06 28.468 0.701218 29.7899 1.95862C31.1118 3.21602 31.8999 4.93341 31.9911 6.75556L32 7.11111V24.8889C32 26.7133 31.2988 28.468 30.0414 29.7899C28.784 31.1118 27.0666 31.8999 25.2444 31.9911L24.8889 32H7.11111C5.28668 32 3.53204 31.2988 2.21011 30.0414C0.888186 28.784 0.100111 27.0666 0.00888909 25.2444L0 24.8889V7.11111C-1.42712e-06 5.28668 0.701218 3.53204 1.95862 2.21011C3.21602 0.888186 4.93341 0.100111 6.75556 0.00888909L7.11111 0H24.8889ZM24.8889 3.55556H7.11111C6.21409 3.55527 5.3501 3.89406 4.69236 4.50399C4.03461 5.11393 3.63172 5.94995 3.56444 6.84444L3.55556 7.11111V24.8889C3.55527 25.7859 3.89406 26.6499 4.50399 27.3076C5.11393 27.9654 5.94995 28.3683 6.84444 28.4356L7.11111 28.4444H24.8889C25.7859 28.4447 26.6499 28.1059 27.3076 27.496C27.9654 26.8861 28.3683 26.0501 28.4356 25.1556L28.4444 24.8889V7.11111C28.4447 6.21409 28.1059 5.3501 27.496 4.69236C26.8861 4.03461 26.0501 3.63172 25.1556 3.56444L24.8889 3.55556ZM22.1387 11.0667L22.5209 10.5689C22.7826 10.1766 23.1894 9.90434 23.6518 9.81199C24.1142 9.71964 24.5944 9.81476 24.9867 10.0764C25.379 10.3381 25.6512 10.7449 25.7436 11.2073C25.8359 11.6698 25.7408 12.1499 25.4791 12.5422C24.7268 13.6337 23.8524 14.6357 22.8729 15.5289C22.6192 15.7633 22.3583 15.9897 22.0907 16.208C24.0427 17.2462 25.6284 18.8391 26.4782 20.5387C26.5912 20.7482 26.661 20.9783 26.6834 21.2154C26.7057 21.4524 26.6803 21.6915 26.6085 21.9185C26.5367 22.1455 26.42 22.3558 26.2654 22.5369C26.1108 22.7179 25.9215 22.8661 25.7085 22.9726C25.4956 23.079 25.2634 23.1417 25.0258 23.1567C24.7882 23.1717 24.55 23.1389 24.3253 23.0601C24.1006 22.9814 23.894 22.8583 23.7178 22.6981C23.5416 22.538 23.3994 22.3441 23.2996 22.128C22.4871 20.5067 20.384 18.9209 18.1511 18.5956L17.7778 18.5547V21.3333C17.7778 21.8048 17.5905 22.257 17.2571 22.5904C16.9237 22.9238 16.4715 23.1111 16 23.1111C9.79556 23.1111 5.33333 18.0124 5.33333 11.5556C5.33333 11.0841 5.52063 10.6319 5.85403 10.2985C6.18743 9.96508 6.63962 9.77778 7.11111 9.77778C7.58261 9.77778 8.03479 9.96508 8.36819 10.2985C8.70159 10.6319 8.88889 11.0841 8.88889 11.5556C8.88889 14.8871 10.6276 18.1316 13.8578 19.2178L14.2222 19.3298V11.5556C14.2222 10.544 15.0364 9.83289 16 9.77778C16.4006 9.77745 16.7897 9.91247 17.104 10.1609C17.4183 10.4094 17.6394 10.7568 17.7316 11.1467L17.7671 11.3476L17.7796 14.7253C18.6613 14.3591 19.5662 13.7422 20.4604 12.9156C21.0791 12.3467 21.6231 11.7209 22.1387 11.0667Z" fill="#E5E3E2"/>
</svg>
