<svg width="40" height="32" viewBox="0 0 40 32" fill="none" xmlns="http://www.w3.org/2000/svg">
<path d="M35.214 5.99C35.062 5.394 34.63 4.944 34.136 4.806C33.26 4.56 29.002 4 20.002 4C11.002 4 6.746 4.56 5.864 4.806C5.376 4.942 4.944 5.392 4.79 5.99C4.572 6.838 4.002 10.39 4.002 16C4.002 21.608 4.572 25.16 4.79 26.012C4.942 26.606 5.374 27.056 5.866 27.192C6.746 27.44 11 28 20 28C29 28 33.258 27.44 34.138 27.194C34.626 27.058 35.058 26.608 35.212 26.01C35.432 25.162 36 21.6 36 16C36 10.4 35.432 6.84 35.214 5.99ZM39.088 4.996C40.002 8.56 40.002 16 40.002 16C40.002 16 40.002 23.44 39.088 27.004C38.58 28.974 37.094 30.524 35.212 31.048C31.794 32 20 32 20 32C20 32 8.214 32 4.79 31.048C2.9 30.516 1.416 28.968 0.914 27.004C5.96046e-08 23.44 0 16 0 16C0 16 5.96046e-08 8.56 0.914 4.996C1.422 3.026 2.908 1.476 4.79 0.952C8.216 -3.57628e-07 20.002 0 20.002 0C20.002 0 31.794 -3.57628e-07 35.212 0.952C37.1 1.484 38.586 3.032 39.088 4.996ZM16.002 23V9L28.002 16L16.002 23Z" fill="#E5E3E2"/>
</svg>
